<?xml version="1.0" encoding="UTF-8"?>
<svg version="1.1" viewBox="0 0 1600 718" height="40" width="150" xmlns="http://www.w3.org/2000/svg">
<path transform="translate(1213,212)" d="m0 0h48l1 1v110l1 17 20-12 35-23 4-2 5 1 22 12 25 15 34 19 2 83 15-9 18-12h4l18 10 17 10 25 14 22 12 1 2 2 59 1 52-13 8-23 14-26 17-24 15-4-1-26-15-22-13-21-12-12-6-2-26-1-41-1-16-21 13-11 8-5-1-18-11-3-1 2 65v16l-21 13-23 15-21 13-20 12-6-1-21-12-25-14-18-11-16-9-1-11-2-61v-25l-5-2-10-6v-2l12-7 21-13 11-7 21-14 14-8 8-4 2 1 3-1 8-5 4 1 19 10 1 1 1-48h-25z" fill="#427524"/>
<path transform="translate(1e3 229)" d="m0 0h23l8 1 98 1 1 2 13 3 10 5 8 7 7 11 4 13 1 6 1 69v73l-3 12-5 10-7 8-11 7-11 4-9 2-10 1h-35l-45-1-1-23v-16l80-1 7-4 3-5 1-27-67 1h-64l-16-3-14-5-11-6-10-9-4-6-3-10-1-14v-63l4-12 6-10 9-8 14-7 14-4zm2 42-10 5-6 8-2 6v45l4 8 6 5 10 3h54l70-1v-63l-4-8-7-6-7-2z" fill="#0478B7"/>
<path transform="translate(537,206)" d="m0 0h15l22 2 17 5 11 6 9 9 6 10 4 10 2 8v82l-4 15-5 10-6 7-10 7-14 6-13 3-26 2h-25l-85-1v52l-1 1h-47l-1-91v-80l3-18 5-12 8-11 8-8 10-6 16-6 7-1zm-77 42-9 2-9 7-5 9-1 17v61l8 1 49 1h52l13-2 9-5 6-8 1-2 1-11v-17l-1-26-1-13-7-8-8-4-4-1-27-1z" fill="#4EAC15"/>
<path transform="translate(157,162)" d="m0 0h73l15 1v41l-76 1-8 5-4 8-1 4v15l4 10 6 5 3 1 136 1 15 3 13 5 8 6 5 5v2h2l3 6 3 10 2 36v21l-8 16-7 9-9 7-12 5-14 3h-196v-42l2-1h187l8-4 3-6v-23l-1-10-4-5-8-3h-107l-35-1-16-4-10-6-6-5-6-9-4-8-2-13v-39l3-12 7-14 9-10 9-6 13-4z" fill="#FD8308"/>
<path transform="translate(1238,422)" d="m0 0h1l1 47 7 1 18 10 10 7 10 5 9 6 7 4v31l1 35v16l-21 13-23 15-21 13-20 12-6-1-21-12-25-14-18-11-16-9-1-11-2-61v-25l-5-2-10-6v-2l12-7 21-13 11-7 21-14 14-8 8-4 2 1 3-1 8-5 4 1 19 10 1 1z" fill="#75532C"/>
<path transform="translate(1213,212)" d="m0 0h48l1 1v110l1 17 20-12 35-23 4-2 5 1 22 12 25 15 21 12-3 1v3l-7 4-20 1-6-1h-11l-4 1-29 2-24-1h-14l-4 1h-17l-5 2v6l5 2 16 11 10 6 13 8 11 6 12 7 7-1 11-7h2v-2l8-4 13-8 14-9 9-5h5l-4 9-2 11-9 19-7 20-12 26-5 16-8 11-10 23-1 9 3 1-6 5-5-1-22-13-9-6-11-6-12-7-9-6-14-7-4-1-1-2-1-45v-33h-25z" fill="#0478B7"/>
<path transform="translate(783,207)" d="m0 0h57l14 2 15 5 10 6 9 9 7 12 4 12v79l-2 17-4 11-8 10-8 6-8 4-12 4-12 2-22 1-105 1-19-2-16-4-10-5-10-9-6-12-1-4v-42l4-11 6-9 10-7 12-5 17-3h147v-9l-3-12-4-6-8-4-5-1h-59l-1-1v-34zm-71 98-7 6-1 3v28l2 7 3 3 9 2h96l18-1 10-5 6-7 3-8v-27l-36-1z" fill="#4EAB15"/>
<path transform="translate(1381,481)" d="m0 0 7 1 29 17 9 5 4 1v2l5 1 5 4 6-2 19-12 19-9h2l-1 5-1 3v7l-7 15-5 15-8 16-2 5h-2l-2 5-3 5-5 5-2 8-1 9v38l-4-1-26-15-22-13-21-12-12-6-2-26-1-41v-17l12-6z" fill="#4EAB15"/>
<path transform="translate(1392,344)" d="m0 0 7 1 9 5 1 41v41l-1 3h2v27l-8 6-17 11-12 6-11 8-14 8-15 10-5-1 1-9 10-23 9-13 5-16 9-19 7-18 4-11 7-15 2-11 4-8-6 1-17 10-18 12-7 2v2l-13 8-7 1-18-10-17-10-9-6-11-7-10-7-3-3 1-5 5-2h17l4-1h14l25 1 28-2 4-1h11l7 1 19-1 5-3h2z" fill="#1F5877"/>
<path transform="translate(1132,485)" d="m0 0 9 3 11 6 16 9 4 1v2l5 2 17 9 14 8 7-1 15-9 5-2-5 5-9 7-6 4h-2l1 13v48l1 19v17l-1 10 3 1-6-1-21-12-25-14-18-11-16-9-1-11-2-61v-24z" fill="#FC8308"/>
<path transform="translate(1322,303)" d="m0 0 5 1 22 12 25 15 21 12-3 1v3l-7 4-20 1-6-1h-11l-4 1-29 2-24-1h-14l-4 1h-17l-5 2v6l5 2 16 11 10 6 13 8 11 6 12 7 7-1 11-7h2v-2l8-4 13-8 14-9 9-5h5l-4 9-2 11-9 19-7 20-12 26-5 16-8 11-10 23-1 9 3 1-6 5-5-1-4-3 3-1 3-16v-19l-2-19 2-21 1-12 4-8 4-6 1-6h-8l-7 1-8-2-11-7-6-4-3-3-10-5-22-13-16-8-3-3v-6l8-7 11-5h5v-2l20-12 35-23z" fill="#16628B"/>
<path transform="translate(1238,422)" d="m0 0h1l1 47 5 1 8 10 3 4 1 6-3 2h-15l-11-3-20 2h-7l-12 3-12-1h-13l-1 3v3l5 2 2 1v2l-5-2-21-12-10-4h-2l-3 8-10-5-6-4v-2l12-7 21-13 11-7 21-14 14-8 8-4 2 1 3-1 8-5 4 1 19 10 1 1z" fill="#966022"/>
<path transform="translate(1269,490)" d="m0 0 7 1 3 3 3 12-4 15-18 42-6 12-12 29-5 13-1 8-9 6-8 5h-5v-27l-1-19v-61l9-6 12-9 1-3 8-6 7-3 13-9z" fill="#965F22"/>
<path transform="translate(1523,468)" d="m0 0h5l2 4 2 47 1 52-13 8-23 14-26 17-5 1-1-2 9-22 2-5 20-44 6-14 7-18 8-15 3-12 2-10z" fill="#406A2A"/>
<path transform="translate(151,459)" d="m0 0h18l10 3 10 6 6 8 3 7 1 8-13 1-5-12-6-5-8-2h-16l-9 3-5 6v10l4 5 13 4 26 7v2l5 1 9 6 6 9 2 7v7l-3 9-6 9-10 7-11 3h-19l-13-3-10-6-7-9-4-10-1-7 1-1h13l3 10 6 7 10 4 5 1h14l10-3 5-5 2-3v-11l-4-5-8-4-30-8-12-6-7-7-3-7v-13l3-8 7-8 10-5z" fill="#21241E"/>
<path transform="translate(480,488)" d="m0 0h7l9 3 6 5 3 4 5-6 6-4 9-2h7l9 3 7 6 3 9 1 60h-14v-52l-2-9-6-4h-12l-6 4-4 7-1 5-1 49h-13l-1-59-4-5-2-1h-13l-6 4-4 7-1 5-1 49h-13l-1-76h12l2 9 5-6 8-4z" fill="#22271F"/>
<path transform="translate(1407,350)" d="m0 0h1l1 41v41l-1 3h2v27l-8 6-17 11-12 6-11 8-14 8-3 1 1-6 5-8 2-9 7-9 6-18 4-8 8-15 5-14 5-10 7-21 6-12 2-10 3-4z" fill="#255169"/>
<path transform="translate(1408,432)" d="m0 0 1 2h2l1 5 1 26 1 4 6 1 8-1 22-1 6-1h26l11-2h10l3 3-1 5-10 7-15 10-4 2-4 4-12 6-18 11-12-6v-2l-6-1-21-12-15-9-7-1-15 10-4 1 4-4 14-9 10-5 15-10 4-3 1-27h-2z" fill="#40692A"/>
<path transform="translate(598,488)" d="m0 0h9l12 2 9 6 3 5 1 5 1 38 1 16 2 6h-14l-3-8-10 7-10 3h-14l-10-4-5-4-4-9v-10l4-8 8-7 11-3 24-4 5-2-1-10-4-5-5-2h-14l-7 3-3 4-2 6h-12l-1-1 1-8 5-8 8-5 7-2zm17 41-26 5-7 4-2 3v9l5 6 3 1h15l8-4 6-7 1-2 1-15z" fill="#21241E"/>
<path transform="translate(394,488)" d="m0 0 14 1 10 5 7 7 5 11 2 12v7l-56 1 2 11 6 9 9 4h11l8-4 7-11 12 1-1 8-7 9-7 6-10 3h-15l-10-3-6-4-8-9-4-11-1-7v-12l3-12 4-8 6-7 9-5zm-2 11-7 3-6 7-3 7v5h42l-1-10-4-6-5-4-5-2z" fill="#20231E"/>
<path transform="translate(1252,504)" d="m0 0 7 1 2 3-7 25-6 10-6 17-7 12-9 19-5 8-3 6-1 24-1 7h-2v-27l-1-19v-61l9-6 12-9 1-3 9-4z" fill="#BA6C18"/>
<path transform="translate(273,488)" d="m0 0h8l11 2 8 4 6 9 1 7-12 1-5-8-6-3h-13l-5 2-3 3v7l4 4 30 9 8 5 4 5 1 3v11l-4 8-8 7-11 4h-16l-10-3-8-6-5-9-1-6 3-2h10l5 10 8 4h13l6-3 3-4 1-6-4-5-30-9-8-5-4-6-1-3v-11l5-8 5-4 8-3z" fill="#21241F"/>
<path transform="translate(674,488)" d="m0 0 15 1 9 4 5 4 4 10v3l-11 2-6-9-6-3h-13l-7 3-2 4 1 6 4 3 30 9 8 5 4 6 1 3v10l-4 8-5 5-6 4-8 2h-16l-10-3-7-5-5-8-1-9 2-1h10l5 10 5 3 4 1h13l7-4 2-4v-6l-4-4-30-9-9-6-4-10 1-10 6-9 7-4z" fill="#21241E"/>
<path transform="translate(1371,361)" d="m0 0h8v4l-11 8-10 7-7 6-9 5-4 1v2l-13 8-7 1-18-10-17-10-7-5-3-3-6-5 2-4 19 1 5-1h25l24-1h18z" fill="#24516A"/>
<path transform="translate(1382,366)" d="m0 0h5l-4 9-2 11-9 19-7 20-12 26-5 16-8 11-10 23-1 9 3 1-6 4-1-1 1-15 1-36 12-28 8-14 4-13 8-12v-13l-5 1 3-3 18-11z" fill="#16628B"/>
<path transform="translate(1219,150)" d="m0 0h39l3 4 1 3v32l-3 5-2 2-8 1h-22l-9-2-3-2-1-3v-35z" fill="#0478B7"/>
<path transform="translate(1258,342)" d="m0 0 4 1-14 8-4 2v8l5 2 11 6 5 3 7 3 10 6 13 8 11 6 12 7 7-1 11-7h2v-2l8-4 6-4 7-1 1 13-9 14-4 13-8 14-11 26-1 36-1 17-5-1-4-3 3-1 3-16v-19l-2-19 2-21 1-12 4-8 4-6 1-6h-8l-7 1-8-2-11-7-6-4-3-3-10-5-22-13-16-8-3-3v-6l8-7z" fill="#116C9A"/>
<path transform="translate(1484,489)" d="m0 0h2l-1 5-1 3v7l-7 15-5 15-8 16-2 5h-2l-2 5-3 5-5 5-2 8-1 9h-1l-2-36-1-7-1-18v-11l-2-2 14-8 11-7z" fill="#4D9C25"/>
<path transform="translate(1213,425)" d="m0 0 4 1 19 10v12l-5 12-2 4-4 2h-46l-3-1v-2h-2l-1-6 3-5 7-5 5-5 4-2 5-5z" fill="#B96C19"/>
<path transform="translate(1408,391)" d="m0 0h1v41l-1 3h2v27l-8 6-17 11-12 6-11 8-7 3 2-6 5-7h2l1-3h2l2-4 3-5 8-14 7-16 10-23 4-12 5-9h2z" fill="#304A4E"/>
<path transform="translate(1287,494)" d="m0 0 4 2 10 6v31l1 35v16l-21 13-15 10-3-2 2-10 6-18 8-16 7-16 7-23 3-9-1-8-6-7v-2h-2z" fill="#624F32"/>
<path transform="translate(340,463)" d="m0 0h1v27h13v10h-13l1 53 12 1 2 12-2 1h-15l-6-3-4-5-1-4v-55h-9l-1-10h10v-19z" fill="#21241E"/>
<path transform="translate(1322,303)" d="m0 0 5 1 22 12 18 11v3l-4 3-7 1-9-1h-15l-24 2h-10l-4-4-5 1-5 3-5-1-2-2 27-18 16-10z" fill="#116D99"/>
<path transform="translate(1444,411)" d="m0 0 5 2 21 12 24 14-4 1-3 2-39 2h-12l-15 2-5-3-2-4v-8l20-13z" fill="#4E9D25"/>
<path transform="translate(1276,491)" d="m0 0 4 2 8 9 1 2v8l-2 11-9 19-5 12-9 20-10 26-8 15-2 6-8 4v-8l8-20 11-27 8-16 12-29 4-10 2-11-3-10z" fill="#825727"/>
<path transform="translate(1219,498)" d="m0 0 14 2h12l2 1-2 4-8 6h-2v2l-20 12-7 1-10-6-12-6-4-4-1-6 1-3 5-2h16z" fill="#644D32"/>
<path transform="translate(220,489)" d="m0 0 12 1v76h-12z" fill="#1F2121"/>
<path transform="translate(1242,469)" d="m0 0 4 2 7 9 3 4 1 6-3 2h-15l-11-3-20 2h-7l-12 3-12-1h-13l-1 5-9-5-3-3 1-4 8-1 25-1h38l18-1 4-4-2-7z" fill="#815727"/>
<path transform="translate(1302,85)" d="m0 0h13l10 5 5 6 3 6 1 11-4 10-6 7-11 5h-9l-10-5-8-9-2-6v-11l3-7 8-9zm-1 6-6 4-4 5-2 5v10l4 8 5 4 5 2h11l8-5 5-6 1-3v-9l-3-7-5-5-5-3z" fill="#427227"/>
<path transform="translate(1342,379)" d="m0 0 5 1-1 7-6 5h-2v2l-13 8-7 1-18-10-6-5-1-7 2-1 27 3 16-2z" fill="#2F4950"/>
<path transform="translate(1456,493)" d="m0 0h15l-5 5-17 11-7 4-12-6v-2l-4-2 1-4 3-1v-2h8z" fill="#30494E"/>
<path transform="translate(1523,550)" d="m0 0 7 1 2 9 1 1v10l-13 8-8 5h-3l1-9 4-6 1-2v-5l4-8h3z" fill="#314D4C"/>
<path transform="translate(1239,430)" d="m0 0 2 2 4 18 1 14 5 5 14 8 23 13 10 6 4 5-3 1-9-6-11-6-12-7-9-6-14-7-4-1-1-2z" fill="#15668F"/>
<path transform="translate(1176,443)" d="m0 0 5 1-5 4-14 10-19 12-9 6h-3v2h-2v5l-4 8-6-2-6-4v-2l12-7 21-13 11-7z" fill="#226576"/>
<path transform="translate(1298,97)" d="m0 0h15l4 2 2 4-1 5-5 4 6 7-1 4-3 1-7-10-5-1v7l-2 4-3-1-1-2v-22zm6 4-2 2 1 5h8l2-2-1-4-1-1z" fill="#5B5A30"/>
<path transform="translate(1258,342)" d="m0 0 4 1-14 8-4 2v8l5 2 11 6 5 3 7 3 10 6 13 8 11 6 12 7 9-1-2 3-7 1-8-2-11-7-6-4-3-3-10-5-22-13-16-8-3-3v-6l8-7z" fill="#116A98"/>
<path transform="translate(1381,481)" d="m0 0 7 1 29 17 9 5 4 2v3l-6-2-9-5v-2l-6-1-18-11-7-2-8 3-3 1v2l-5 5-5 10-2-2-2-11 12-6z" fill="#4D9C25"/>
<path transform="translate(1293,90)" d="m0 0 6 1v2l-6 5-3 7v10l4 8 5 5-5 2-8-9-2-6v-11l3-7z" fill="#565C30"/>
<path transform="translate(1213,425)" d="m0 0 4 1 15 8v1l-10 1-5 2h-9l-4-3-1-4z" fill="#FD850D"/>
<path transform="translate(220,460)" d="m0 0 12 1v15h-12z" fill="#212322"/>
<path transform="translate(1444,411)" d="m0 0 5 2 21 12-3 1-10-4-10-5-5 1-7 4-6 4-7 4-7 1 5-4 23-15z" fill="#4EAC15"/>
<path transform="translate(1326,304)" d="m0 0 10 5-2 5-4 3h-11l-6-2v-2l6-3 3-1 1-3z" fill="#0478B7"/>
<path transform="translate(1200,430)" d="m0 0 2 1-4 4-4 2-2 4-22 13-12 8-2-1 16-11 8-6-2-2 14-8z" fill="#4DA218"/>
<path transform="translate(1258,342)" d="m0 0 4 1-14 8-4 2v8l5 2 11 6 2 3-6-2-14-7-3-3v-6l8-7z" fill="#116C9B"/>
<path transform="translate(1529,532)" d="m0 0h1v19l-3 1h-4l-1 2h-3l1-5 6-16z" fill="#644D33"/>
<path transform="translate(1126,475)" d="m0 0 3 1-3 14-3 1-10-6v-2l12-7z" fill="#0A7AA8"/>
<path transform="translate(1176,443)" d="m0 0 5 1-5 4-14 10-8 3-3-1z" fill="#267381"/>
<path transform="translate(1287,109)" d="m0 0h1l3 9 4 6 4 4-5 2-8-9-1-2v-9z" fill="#3C5243"/>
<path transform="translate(1298,97)" d="m0 0h15l4 2 2 4-1 5-2 1-2-3v-3l-3-1v-2h-12z" fill="#416E29"/>
<path transform="translate(1262,371)" d="m0 0 8 3 12 7 11 7-3 1-10-5-18-11z" fill="#126996"/>
<path transform="translate(1445,606)" d="m0 0h1l1 19-4-1-7-4-1-3 7-1 1-3h1z" fill="#4E9E24"/>
<path transform="translate(1298,107)" d="m0 0 2 4h7l4 4-8-2v7l-2 4-3-1-1-2v-8z" fill="#415D3B"/>
<path transform="translate(1514,564)" d="m0 0 2 4-4 5-2 5v7l-5 3h-2l3-10 4-8h2z" fill="#615031"/>
<path transform="translate(147,500)" d="m0 0 11 2 22 6v2l-11-2-19-5z" fill="#436C2E"/>
<path transform="translate(1139,472)" d="m0 0h2l-1 6-4 3h-5l-2 2v-5h2v-2z" fill="#676A26"/>
<path transform="translate(1200,430)" d="m0 0 2 1-4 4-4 2-8 5-3-1 1-3z" fill="#3E7133"/>
<path transform="translate(1397,355)" d="m0 0h5l-2 4-6 4h-4l2-4z" fill="#16628C"/>
<path transform="translate(1253,474)" d="m0 0 5 2 14 9-2 1-9-4-2-1v-2l-6-3z" fill="#3A6038"/>
<path transform="translate(1380,480)" d="m0 0h6v1l-6 2-16 10-2-1 11-8z" fill="#417226"/>
<path transform="translate(1151,493)" d="m0 0 8 2 11 7v2l-5-2-14-8z" fill="#A9661D"/>
<path transform="translate(1262,489)" d="m0 0 7 1-4 3-8 5-2-1 2-2 2-5z" fill="#825727"/>
<path transform="translate(870,376)" d="m0 0 3 1h-2v2l-10 4h-7l2-2 13-4z" fill="#4EA21F"/>
<path transform="translate(1262,371)" d="m0 0 8 3 7 4-2 1-7-2-6-4z" fill="#136794"/>
<path transform="translate(1313,116)" d="m0 0 5 2 1 4-4 2-3-5z" fill="#416F29"/>
<path transform="translate(1127,479)" d="m0 0 2 4v7l-3 3-2-2 2-4z" fill="#4EAA16"/>
<path transform="translate(842,208)" d="m0 0h8l2 1v2h-8l-2-1z" fill="#4E9F22"/>
<path transform="translate(351,282)" d="m0 0" fill="#FEFEFE"/>
</svg>
